<?xml version="1.0" encoding="UTF-8" standalone="no"?><!-- Generator: Gravit.io --><svg xmlns="http://www.w3.org/2000/svg" xmlns:xlink="http://www.w3.org/1999/xlink" style="isolation:isolate" viewBox="0 0 560 315" width="560pt" height="315pt"><defs><clipPath id="_clipPath_xw6MvTCeWbZIlv9dKFz7lbWHk5wGfTwu"><rect width="560" height="315"/></clipPath></defs><g clip-path="url(#_clipPath_xw6MvTCeWbZIlv9dKFz7lbWHk5wGfTwu)"><g><g><path d=" M 558.286 84.571 L 455.374 280.686 C 455.32 280.803 455.11 280.848 455.04 280.964 C 451.919 304.49 340.016 310.8 280.315 310.8 C 220.62 310.8 108.668 304.49 105.55 280.964 C 105.48 280.846 105.296 280.801 105.224 280.686 L 2.301 84.571 C 1.005 82.112 2.284 79.391 5.439 77.85 C 8.621 76.318 12.928 76.318 16.089 77.85 L 158.651 147.081 C 161.807 148.613 163.102 151.322 161.841 153.781 C 160.692 156.008 160.14 158.027 160.14 159.952 C 160.14 170.612 173.226 179.254 189.312 179.254 C 205.398 179.254 218.49 170.599 218.49 159.952 C 218.49 149.952 207.051 141.745 191.92 140.88 C 188.992 140.678 186.372 139.603 184.915 137.91 C 183.461 136.199 183.337 134.174 184.59 132.393 L 272.178 10.212 C 273.67 8.107 276.814 6.8 280.295 6.8 C 283.776 6.8 286.923 8.105 288.412 10.212 L 375.931 132.299 C 377.192 134.081 377.054 136.169 375.542 137.908 C 374.019 139.602 371.301 140.674 368.301 140.767 C 352.84 141.324 340.707 149.763 340.707 159.948 C 340.707 170.609 353.804 179.25 369.879 179.25 C 385.974 179.25 399.054 170.597 399.054 159.948 C 399.054 157.606 398.372 155.25 396.984 152.895 C 395.492 150.365 396.774 147.489 400.142 145.911 L 544.647 77.802 C 547.82 76.294 552.099 76.317 555.237 77.871 C 558.321 79.428 559.602 82.135 558.286 84.571 Z  M 437.385 279.98 C 435.825 273.577 378.969 261.035 280.315 261.035 C 181.644 261.035 124.774 273.577 123.214 280.025 C 124.878 286.407 181.866 298.935 280.315 298.935 C 378.738 298.935 435.721 286.405 437.385 279.98 Z  M 532.091 98.294 L 415.782 153.105 C 416.571 155.368 416.994 157.652 416.994 159.95 C 416.994 177.132 395.832 191.132 369.867 191.132 C 343.888 191.132 322.743 177.118 322.743 159.95 C 322.743 146.342 336.048 134.65 354.754 130.509 L 280.298 26.594 L 205.614 130.781 C 223.819 135.138 236.445 146.53 236.445 159.952 C 236.445 177.143 215.291 191.134 189.318 191.134 C 163.335 191.134 142.19 177.132 142.19 159.952 C 142.19 158.073 142.481 156.193 143.069 154.257 L 28.706 98.696 L 117.288 267.486 C 147.506 253.333 228.256 249.157 280.301 249.157 C 332.317 249.157 413.087 253.333 443.276 267.486 L 532.091 98.294 Z " fill="rgb(232,34,34)"/></g></g><path d=" M 258.71 95.866 Q 268.03 90.505 272.691 83.536 L 297.8 83 L 296.43 242 L 274.372 242 L 274.762 111.948 Q 266.477 118.917 261.817 119.989 Q 257.156 121.061 249.907 121.597 L 246.8 100.69 Q 249.389 101.226 258.71 95.866 Z " fill="rgb(19,36,225)" vector-effect="non-scaling-stroke" stroke-width="1" stroke="rgb(0,0,0)" stroke-linejoin="miter" stroke-linecap="square" stroke-miterlimit="3"/></g></svg>