<?xml version="1.0" encoding="UTF-8" standalone="no"?>
<!DOCTYPE svg PUBLIC "-//W3C//DTD SVG 1.1//EN" "http://www.w3.org/Graphics/SVG/1.1/DTD/svg11.dtd">
<svg version="1.1" xmlns="http://www.w3.org/2000/svg" xmlns:xlink="http://www.w3.org/1999/xlink" preserveAspectRatio="xMidYMid meet" viewBox="122.96039603960396 73.25741365640474 197.07367495596083 199.04950495049505" width="193.07" height="195.05"><defs><path d="M270.69 90.32C332.92 127.5 332.37 217.83 269.7 254.26C264.52 257.27 293.24 240.58 264.23 257.44C250.86 265.21 235.66 269.31 220.19 269.31C206.67 269.31 183.58 269.31 168.52 269.31C159.72 269.31 152.58 262.17 152.58 253.37C152.58 247.83 152.58 233.96 152.58 211.78C165.76 211.78 173.99 211.78 177.28 211.78C186.86 211.78 194.62 204.02 194.62 194.45C194.62 192.7 194.62 199.2 194.62 196.05C194.62 190.34 189.99 185.71 184.28 185.71C180.06 185.71 169.49 185.71 152.58 185.71L152.58 161.45C179.92 161.45 197.01 161.45 203.84 161.45C211.1 161.45 216.98 155.56 216.98 148.31C216.98 145.01 216.98 148.22 216.98 144.92C216.98 137.66 211.1 131.78 203.84 131.78C187.87 131.78 154.19 131.78 138.5 131.78C130.47 131.78 123.96 125.28 123.96 117.25C123.96 108.65 123.96 99.63 123.96 91.59C123.96 82.02 131.72 74.26 141.3 74.26C161.8 74.26 202.31 74.26 221.9 74.26C236.24 74.26 250.31 78.14 262.62 85.5C291.95 103.02 265.32 87.11 270.69 90.32Z" id="b2VtIBtEzy"></path><linearGradient id="gradiente5rn6VTh4p" gradientUnits="userSpaceOnUse" x1="220.61" y1="74.26" x2="220.61" y2="269.31"><stop style="stop-color: #ff0000;stop-opacity: 1" offset="0%"></stop><stop style="stop-color: #ffffff;stop-opacity: 1" offset="100%"></stop></linearGradient></defs><g><g><use xlink:href="#b2VtIBtEzy" opacity="1" fill="url(#gradiente5rn6VTh4p)"></use><g><use xlink:href="#b2VtIBtEzy" opacity="1" fill-opacity="0" stroke="#000000" stroke-width="1" stroke-opacity="1"></use></g></g></g></svg>