<svg xmlns="http://www.w3.org/2000/svg" xmlns:xlink="http://www.w3.org/1999/xlink" width="382.59" height="387.13" preserveAspectRatio="xMidYMid meet" version="1.1" viewBox="85.827 100.98 387.092 391.129"><defs><path id="k4otPNlFqR"/><path id="a2J5onZm9N" d="M87.33 167.33L151.68 199.01L153.66 405.94L87.33 439.6L87.33 489.11C220.3 489.11 303.41 489.11 336.66 489.11C350.28 489.11 363.55 484.78 374.55 476.74C425.62 439.41 380.72 472.22 386.5 468C502.93 382.9 496.34 207.05 373.88 130.9C370.63 128.88 419.47 159.25 366.86 126.54C360.82 122.78 353.86 120.79 346.75 120.79C312.16 120.79 225.68 120.79 87.33 120.79L87.33 167.33Z"/><linearGradient id="gradientabYWusBrw" x1="326.15" x2="151.68" y1="116.83" y2="342.57" gradientUnits="userSpaceOnUse"><stop offset="0%" stop-color="#0e23f3" stop-opacity="1"/><stop offset="100%" stop-color="#010000" stop-opacity="1"/></linearGradient><path id="b1E9w2MnU" d="M353.87 178.22L353.87 215.84L265.75 217.82L265.75 292.08L327.14 292.08L327.14 326.93L265.75 326.93L265.75 446.53L223.18 446.53L223.18 178.22L353.87 178.22Z"/><path id="c1l1tBV3Lc" d="M151.68 276.24L457.62 372.28L461.58 359.41L151.68 266.34L151.68 276.24Z"/></defs><g><g><g><use fill-opacity="0" stroke="#000" stroke-opacity="1" stroke-width="1" opacity="1" xlink:href="#k4otPNlFqR"/></g></g><g><use fill="url(#gradientabYWusBrw)" opacity="1" xlink:href="#a2J5onZm9N"/><g><use fill-opacity="0" stroke="#fff" stroke-opacity="1" stroke-width="3" opacity="1" xlink:href="#a2J5onZm9N"/></g></g><g><use fill="#fff" fill-opacity="1" opacity="1" xlink:href="#b1E9w2MnU"/><g><use fill-opacity="0" stroke="#000" stroke-opacity="1" stroke-width="0" opacity="1" xlink:href="#b1E9w2MnU"/></g></g><g><use fill="#fff" fill-opacity="1" opacity="1" xlink:href="#c1l1tBV3Lc"/><g><use fill-opacity="0" stroke="#000" stroke-opacity="1" stroke-width="0" opacity="1" xlink:href="#c1l1tBV3Lc"/></g></g></g></svg>