<?xml version="1.0" encoding="UTF-8" standalone="no"?>
<!DOCTYPE svg PUBLIC "-//W3C//DTD SVG 1.1//EN" "http://www.w3.org/Graphics/SVG/1.1/DTD/svg11.dtd">
<svg version="1.1" xmlns="http://www.w3.org/2000/svg" xmlns:xlink="http://www.w3.org/1999/xlink" preserveAspectRatio="xMidYMid meet" viewBox="85.82673267326732 100.98018593363247 387.09150189811555 391.128712871287" width="382.59" height="387.13"><defs><path d="" id="k4otPNlFqR"></path><path d="M87.33 167.33L151.68 199.01L153.66 405.94L87.33 439.6L87.33 489.11C220.3 489.11 303.41 489.11 336.66 489.11C350.28 489.11 363.55 484.78 374.55 476.74C425.62 439.41 380.72 472.22 386.5 468C502.93 382.9 496.34 207.05 373.88 130.9C370.63 128.88 419.47 159.25 366.86 126.54C360.82 122.78 353.86 120.79 346.75 120.79C312.16 120.79 225.68 120.79 87.33 120.79L87.33 167.33Z" id="a2J5onZm9N"></path><linearGradient id="gradientabYWusBrw" gradientUnits="userSpaceOnUse" x1="326.15" y1="116.83" x2="151.68" y2="342.57"><stop style="stop-color: #0e23f3;stop-opacity: 1" offset="0%"></stop><stop style="stop-color: #010000;stop-opacity: 1" offset="100%"></stop></linearGradient><path d="M353.87 178.22L353.87 215.84L265.75 217.82L265.75 292.08L327.14 292.08L327.14 326.93L265.75 326.93L265.75 446.53L223.18 446.53L223.18 178.22L353.87 178.22Z" id="b1E9w2MnU"></path><path d="M151.68 276.24L457.62 372.28L461.58 359.41L151.68 266.34L151.68 276.24Z" id="c1l1tBV3Lc"></path></defs><g><g><g><use xlink:href="#k4otPNlFqR" opacity="1" fill-opacity="0" stroke="#000000" stroke-width="1" stroke-opacity="1"></use></g></g><g><use xlink:href="#a2J5onZm9N" opacity="1" fill="url(#gradientabYWusBrw)"></use><g><use xlink:href="#a2J5onZm9N" opacity="1" fill-opacity="0" stroke="#ffffff" stroke-width="3" stroke-opacity="1"></use></g></g><g><use xlink:href="#b1E9w2MnU" opacity="1" fill="#ffffff" fill-opacity="1"></use><g><use xlink:href="#b1E9w2MnU" opacity="1" fill-opacity="0" stroke="#000000" stroke-width="0" stroke-opacity="1"></use></g></g><g><use xlink:href="#c1l1tBV3Lc" opacity="1" fill="#ffffff" fill-opacity="1"></use><g><use xlink:href="#c1l1tBV3Lc" opacity="1" fill-opacity="0" stroke="#000000" stroke-width="0" stroke-opacity="1"></use></g></g></g></svg>